<?xml version="1.0" encoding="UTF-8"?>
<!-- Created with Inkscape (http://www.inkscape.org/) -->
<svg width="2065.5" height="596.61" version="1.1" viewBox="0 0 2065.5 596.61" xmlns="http://www.w3.org/2000/svg">
 <g transform="translate(22.812 -26.462)">
  <a>
   <path d="m-0.80228 531.55 149.22-146.15-55.06-12.586-25.008-40.729 17.065-20.062 153.7-75.327 35.809-46.835 78.479-29.141 30.371 8.4725 124.16-119.97 22.665 21.483 21.364 41.914-23.064 78.707 31.276-11.58-3.3185-13.207 19.17 10.793 21.629-1.5138 9.4664 30.642-11.511 34.857-55.619 43.373-37.735 84.109 23.621 52.556-20.739 83.697-38.683 96.011-466.45-1.073z" fill="#008dd5" style="mix-blend-mode:normal"/>
  </a>
  <g stroke="#fff" stroke-width="4">
   <path d="m148.41 385.41 50.027-70.35-105.09 57.764-7.9432-60.791" fill="none"/>
   <path d="m85.409 312.03 113.03 3.0272 40.669-78.354 100.29-14.063-64.483-32.771" fill="none"/>
   <path d="m339.4 222.64 13.995-61.912 30.371 8.4725-44.366 53.44" fill="#373f51"/>
  </g>
  <g fill="none" stroke="#fff" stroke-width="4">
   <path d="m383.77 169.2 112.42-47.812 11.742-72.156"/>
   <path d="m530.59 70.714-34.407 50.672 55.771-8.7583"/>
   <path d="m528.89 191.34-32.707-69.949"/>
   <path d="m383.77 169.2 145.13 22.137"/>
   <path d="m148.41 385.41 179.26-67.043-129.24-3.3073 140.96-92.418 75.867 39.704 113.63-71.007"/>
   <path d="m383.77 169.2 31.501 93.144"/>
   <path d="m327.68 318.36 11.724-95.725"/>
   <path d="m327.68 318.36 87.591-56.021"/>
   <path d="m415.27 262.34 124.72 22.358-11.093-93.365 66.712 49.992"/>
   <path d="m607.12 206.47-78.223-15.134"/>
   <path d="m560.17 179.75 15.852-2.4138"/>
   <path d="m560.17 179.75 46.947 26.714-31.095-29.128"/>
   <path d="m327.68 318.36 174.57 50.446-86.984-106.47"/>
   <path d="m148.41 385.41 154.35 51.095 24.911-118.14"/>
   <path d="m302.77 436.5 199.49-67.692"/>
   <path d="m525.87 421.36-223.11 15.136 202.37 68.561"/>
   <path d="m302.77 436.5-302.77 163.5 141.32-134.94 7.0892-79.654"/>
   <path d="m-0.80228 531.55 142.13-66.493 161.44-28.559-7.3904 102.46-295.38 61.038"/>
   <path d="m466.45 601.07-171.07-62.111 209.76-33.9"/>
  </g>
  <text x="651.79242" y="596.89423" fill="#000000" font-family="sans-serif" font-size="480px" letter-spacing="0px" stroke-width="10" word-spacing="0px" style="line-height:1.25" xml:space="preserve"><tspan x="651.79242" y="596.89423" fill="#2b2b2b" font-family="'Roboto Condensed'" font-size="480px" stroke-width="10">FENRIS</tspan></text>
 </g>
 <a transform="translate(22.812 -26.462)" fill="none" stroke="#000">
  <path d="m-0.80228 531.55 149.22-146.15-55.06-12.586-25.008-40.729 17.065-20.062 153.7-75.327 35.809-46.835 78.479-29.141 30.371 8.4725 124.16-119.97 22.665 21.483 21.364 41.914-23.064 78.707 31.276-11.58-3.3185-13.207 19.17 10.793 21.629-1.5138 9.4664 30.642-11.511 34.857-55.619 43.373-37.735 84.109 23.621 52.556-20.739 83.697-38.683 96.011-466.45-1.073z" fill="none" stroke="#000" stroke-width="4" style="mix-blend-mode:normal"/>
 </a>
</svg>
