<?xml version="1.0" encoding="UTF-8"?>
<!-- Created with Inkscape (http://www.inkscape.org/) -->
<svg width="2065.5" height="596.61" version="1.1" viewBox="0 0 2065.5 596.61" xmlns="http://www.w3.org/2000/svg">
 <g transform="translate(22.812 -26.462)">
  <a>
   <path d="m-0.80228 531.55 149.22-146.15-55.06-12.586-25.008-40.729 17.065-20.062 153.7-75.327 35.809-46.835 78.479-29.141 30.371 8.4725 124.16-119.97 22.665 21.483 21.364 41.914-23.064 78.707 31.276-11.58-3.3185-13.207 19.17 10.793 21.629-1.5138 9.4664 30.642-11.511 34.857-55.619 43.373-37.735 84.109 23.621 52.556-20.739 83.697-38.683 96.011-466.45-1.073z" fill="#008dd5" style="mix-blend-mode:normal"/>
  </a>
  <g stroke="#fff" stroke-width="4">
   <path d="m148.41 385.41 50.027-70.35-105.09 57.764-7.9432-60.791" fill="none"/>
   <path d="m85.409 312.03 113.03 3.0272 40.669-78.354 100.29-14.063-64.483-32.771" fill="none"/>
   <path d="m339.4 222.64 13.995-61.912 30.371 8.4725-44.366 53.44" fill="#373f51"/>
  </g>
  <g fill="none" stroke="#fff" stroke-width="4">
   <path d="m383.77 169.2 112.42-47.812 11.742-72.156"/>
   <path d="m530.59 70.714-34.407 50.672 55.771-8.7583"/>
   <path d="m528.89 191.34-32.707-69.949"/>
   <path d="m383.77 169.2 145.13 22.137"/>
   <path d="m148.41 385.41 179.26-67.043-129.24-3.3073 140.96-92.418 75.867 39.704 113.63-71.007"/>
   <path d="m383.77 169.2 31.501 93.144"/>
   <path d="m327.68 318.36 11.724-95.725"/>
   <path d="m327.68 318.36 87.591-56.021"/>
   <path d="m415.27 262.34 124.72 22.358-11.093-93.365 66.712 49.992"/>
   <path d="m607.12 206.47-78.223-15.134"/>
   <path d="m560.17 179.75 15.852-2.4138"/>
   <path d="m560.17 179.75 46.947 26.714-31.095-29.128"/>
   <path d="m327.68 318.36 174.57 50.446-86.984-106.47"/>
   <path d="m148.41 385.41 154.35 51.095 24.911-118.14"/>
   <path d="m302.77 436.5 199.49-67.692"/>
   <path d="m525.87 421.36-223.11 15.136 202.37 68.561"/>
   <path d="m302.77 436.5-302.77 163.5 141.32-134.94 7.0892-79.654"/>
   <path d="m-0.80228 531.55 142.13-66.493 161.44-28.559-7.3904 102.46-295.38 61.038"/>
   <path d="m466.45 601.07-171.07-62.111 209.76-33.9"/>
  </g>
 </g>
 <a transform="translate(22.812 -26.462)" fill="none" stroke="#000">
  <path d="m-0.80228 531.55 149.22-146.15-55.06-12.586-25.008-40.729 17.065-20.062 153.7-75.327 35.809-46.835 78.479-29.141 30.371 8.4725 124.16-119.97 22.665 21.483 21.364 41.914-23.064 78.707 31.276-11.58-3.3185-13.207 19.17 10.793 21.629-1.5138 9.4664 30.642-11.511 34.857-55.619 43.373-37.735 84.109 23.621 52.556-20.739 83.697-38.683 96.011-466.45-1.073z" fill="none" stroke="#000" stroke-width="4" style="mix-blend-mode:normal"/>
 </a>
 <g stroke-width="10">
  <text x="677.61591" y="574.41132" display="none" fill="#000000" font-family="sans-serif" font-size="480px" letter-spacing="0px" stroke="#ffffff" word-spacing="0px" style="line-height:1.25" xml:space="preserve"><tspan x="0" y="0" fill="#2b2b2b" font-family="'Roboto Condensed'" font-size="480px" stroke="#ffffff" stroke-width="10">FENRIS</tspan></text>
  <g fill="#2b2b2b" stroke="#fff" aria-label="FENRIS">
   <path d="m714.41 574.41v-341.25h177.66v37.031h-134.53v116.48h115.08v37.031h-115.08v150.7z"/>
   <path d="m945.27 574.41v-341.25h181.17v37.031h-138.05v109.69h120.47v36.797h-120.47v120.94h140.39v36.797z"/>
   <path d="m1407 233.16v341.25h-43.359l-136.64-263.2v263.2h-43.125v-341.25h43.125l137.34 263.91v-263.91z"/>
   <path d="m1645.4 574.41-60.703-138.28h-60v138.28h-43.125v-341.25h95.391q50.859 0 76.172 25.781 25.547 25.547 25.547 76.641 0 66.094-53.438 90.703l66.328 145.31v2.8125zm-120.7-304.22v129.14h51.797q29.531 0 44.297-18.516 14.766-18.75 14.766-45.234 0-29.531-13.359-47.344-13.359-18.047-45.234-18.047z"/>
   <path d="m1781.1 233.16v341.25h-43.125v-341.25z"/>
   <path d="m2005.4 488.16q0-23.906-12.656-37.969-12.656-14.062-54.141-28.828-41.484-15-65.859-37.969t-24.375-62.109q0-39.844 26.484-66.328 26.484-26.484 71.25-26.484 49.922 0 76.172 31.641 26.25 31.641 26.25 71.484h-43.125q0-28.594-14.062-47.344t-45.234-18.75q-28.359 0-41.484 15.938-12.891 15.703-12.891 39.375 0 21.562 15.234 35.859 15.469 14.297 47.812 26.016 50.156 16.406 71.953 40.781t21.797 64.219q0 41.719-27.188 66.562-26.953 24.844-73.125 24.844-26.719 0-51.797-11.719t-41.25-34.688q-15.938-23.203-15.938-57.188h43.125q0 34.922 19.219 50.859 19.453 15.938 46.641 15.938 28.125 0 42.656-14.531 14.531-14.766 14.531-39.609z"/>
  </g>
 </g>
</svg>
