<?xml version="1.0" encoding="UTF-8" standalone="no"?>
<!-- Created with Inkscape (http://www.inkscape.org/) -->

<svg
   version="1.1"
   id="svg9"
   width="2065.4639"
   height="596.61395"
   viewBox="0 0 2065.4639 596.61395"
   sodipodi:docname="logo_inkscape.svg"
   inkscape:version="1.1 (ce6663b3b7, 2021-05-25)"
   xmlns:inkscape="http://www.inkscape.org/namespaces/inkscape"
   xmlns:sodipodi="http://sodipodi.sourceforge.net/DTD/sodipodi-0.dtd"
   xmlns="http://www.w3.org/2000/svg"
   xmlns:svg="http://www.w3.org/2000/svg">
  <defs
     id="defs13" />
  <sodipodi:namedview
     id="namedview11"
     pagecolor="#ffffff"
     bordercolor="#666666"
     borderopacity="1.0"
     inkscape:pageshadow="2"
     inkscape:pageopacity="0.0"
     inkscape:pagecheckerboard="0"
     showgrid="false"
     inkscape:zoom="0.25"
     inkscape:cx="-200"
     inkscape:cy="238"
     inkscape:window-width="1976"
     inkscape:window-height="1088"
     inkscape:window-x="72"
     inkscape:window-y="27"
     inkscape:window-maximized="1"
     inkscape:current-layer="layer4"
     width="1801px"
     height="601px"
     fit-margin-top="20"
     fit-margin-left="20"
     fit-margin-right="20"
     fit-margin-bottom="20" />
  <g
     inkscape:groupmode="layer"
     id="layer1"
     inkscape:label="Wolf body (no stroke)"
     transform="translate(22.812156,-26.462156)">
    <a
       id="a32777"
       style="stroke:none;stroke-opacity:1">
      <path
         style="mix-blend-mode:normal;fill:#008dd5;fill-opacity:1;stroke:none;stroke-width:4;stroke-linecap:butt;stroke-linejoin:miter;stroke-miterlimit:4;stroke-dasharray:none;stroke-opacity:1"
         d="M -0.80227945,531.55253 148.41289,385.40557 93.352583,372.81987 68.344652,332.09084 85.409388,312.02841 239.10883,236.70134 l 35.80942,-46.83465 78.47854,-29.14117 30.37066,8.47253 124.16207,-119.967643 22.66497,21.483306 21.36402,41.913937 -23.06398,78.70735 31.2761,-11.58017 -3.31852,-13.20687 19.17037,10.79303 21.62898,-1.51376 9.4664,30.6421 -11.51138,34.85746 -55.61916,43.37308 -37.73528,84.10864 23.62081,52.55607 -20.73897,83.69748 L 466.4509,601.07299 0,600 Z"
         id="path195"
         sodipodi:nodetypes="cccccccccccccccccccccccccc" />
    </a>
  </g>
  <g
     inkscape:groupmode="layer"
     id="layer2"
     inkscape:label="internal grid lines"
     transform="translate(22.812156,-26.462156)">
    <path
       style="fill:none;stroke:#ffffff;stroke-width:4;stroke-linecap:butt;stroke-linejoin:miter;stroke-miterlimit:4;stroke-dasharray:none;stroke-opacity:1"
       d="M 148.41289,385.40557 198.43941,315.05556 93.352583,372.81987 85.409388,312.02841"
       id="path1899" />
    <path
       style="fill:none;stroke:#ffffff;stroke-width:4;stroke-linecap:butt;stroke-linejoin:miter;stroke-miterlimit:4;stroke-dasharray:none;stroke-opacity:1"
       d="m 85.409388,312.02841 113.030022,3.02715 40.66942,-78.35422 100.29261,-14.06342 -64.48319,-32.77123"
       id="path1901" />
    <path
       style="fill:#373f51;fill-opacity:1;stroke:#ffffff;stroke-width:4;stroke-linecap:butt;stroke-linejoin:miter;stroke-miterlimit:4;stroke-dasharray:none;stroke-opacity:1"
       d="m 339.40144,222.63792 13.99535,-61.9124 30.37066,8.47253 -44.36601,53.43987"
       id="path1903"
       sodipodi:nodetypes="cccc" />
    <path
       style="fill:none;stroke:#ffffff;stroke-width:4;stroke-linecap:butt;stroke-linejoin:miter;stroke-miterlimit:4;stroke-dasharray:none;stroke-opacity:1"
       d="M 383.76745,169.19805 496.18731,121.38593 507.92952,49.230407"
       id="path1907" />
    <path
       style="fill:none;stroke:#ffffff;stroke-width:4;stroke-linecap:butt;stroke-linejoin:miter;stroke-miterlimit:4;stroke-dasharray:none;stroke-opacity:1"
       d="m 530.59449,70.713713 -34.40718,50.672217 55.7712,-8.75828"
       id="path1909" />
    <path
       style="fill:none;stroke:#ffffff;stroke-width:4;stroke-linecap:butt;stroke-linejoin:miter;stroke-miterlimit:4;stroke-dasharray:none;stroke-opacity:1"
       d="M 528.89453,191.335 496.18731,121.38593"
       id="path1911" />
    <path
       style="fill:none;stroke:#ffffff;stroke-width:4;stroke-linecap:butt;stroke-linejoin:miter;stroke-miterlimit:4;stroke-dasharray:none;stroke-opacity:1"
       d="M 383.76745,169.19805 528.89453,191.335"
       id="path1913" />
    <path
       style="fill:none;stroke:#ffffff;stroke-width:4;stroke-linecap:butt;stroke-linejoin:miter;stroke-miterlimit:4;stroke-dasharray:none;stroke-opacity:1"
       d="M 148.41289,385.40557 327.67722,318.36285 198.43941,315.05556 339.40144,222.63792 415.26798,262.34233 528.89453,191.335"
       id="path1915" />
    <path
       style="fill:none;stroke:#ffffff;stroke-width:4;stroke-linecap:butt;stroke-linejoin:miter;stroke-miterlimit:4;stroke-dasharray:none;stroke-opacity:1"
       d="m 383.76745,169.19805 31.50053,93.14428"
       id="path1917" />
    <path
       style="fill:none;stroke:#ffffff;stroke-width:4;stroke-linecap:butt;stroke-linejoin:miter;stroke-miterlimit:4;stroke-dasharray:none;stroke-opacity:1"
       d="m 327.67722,318.36285 11.72422,-95.72493"
       id="path1919" />
    <path
       style="fill:none;stroke:#ffffff;stroke-width:4;stroke-linecap:butt;stroke-linejoin:miter;stroke-miterlimit:4;stroke-dasharray:none;stroke-opacity:1"
       d="m 327.67722,318.36285 87.59076,-56.02052"
       id="path1921" />
    <path
       style="fill:none;stroke:#ffffff;stroke-width:4;stroke-linecap:butt;stroke-linejoin:miter;stroke-miterlimit:4;stroke-dasharray:none;stroke-opacity:1"
       d="m 415.26798,262.34233 124.71934,22.35754 -11.09279,-93.36487 66.71195,49.99179"
       id="path1942" />
    <path
       style="fill:none;stroke:#ffffff;stroke-width:4;stroke-linecap:butt;stroke-linejoin:miter;stroke-miterlimit:4;stroke-dasharray:none;stroke-opacity:1"
       d="M 607.11786,206.46933 528.89453,191.335"
       id="path1944" />
    <path
       style="fill:none;stroke:#ffffff;stroke-width:4;stroke-linecap:butt;stroke-linejoin:miter;stroke-miterlimit:4;stroke-dasharray:none;stroke-opacity:1"
       d="m 560.17063,179.75483 15.85185,-2.41384"
       id="path1946" />
    <path
       style="fill:none;stroke:#ffffff;stroke-width:4;stroke-linecap:butt;stroke-linejoin:miter;stroke-miterlimit:4;stroke-dasharray:none;stroke-opacity:1"
       d="m 560.17063,179.75483 46.94723,26.7145 -31.09538,-29.12834"
       id="path1950" />
    <path
       style="fill:none;stroke:#ffffff;stroke-width:4;stroke-linecap:butt;stroke-linejoin:miter;stroke-miterlimit:4;stroke-dasharray:none;stroke-opacity:1"
       d="M 327.67722,318.36285 502.25204,368.80851 415.26798,262.34233"
       id="path1952" />
    <path
       style="fill:none;stroke:#ffffff;stroke-width:4;stroke-linecap:butt;stroke-linejoin:miter;stroke-miterlimit:4;stroke-dasharray:none;stroke-opacity:1"
       d="m 148.41289,385.40557 154.3535,51.09521 24.91083,-118.13793"
       id="path1954" />
    <path
       style="fill:none;stroke:#ffffff;stroke-width:4;stroke-linecap:butt;stroke-linejoin:miter;stroke-miterlimit:4;stroke-dasharray:none;stroke-opacity:1"
       d="M 302.76639,436.50078 502.25204,368.80851"
       id="path1956" />
    <path
       style="fill:none;stroke:#ffffff;stroke-width:4;stroke-linecap:butt;stroke-linejoin:miter;stroke-miterlimit:4;stroke-dasharray:none;stroke-opacity:1"
       d="m 525.87285,421.36458 -223.10646,15.1362 202.36749,68.56128"
       id="path1958" />
    <path
       style="fill:none;stroke:#ffffff;stroke-width:4;stroke-linecap:butt;stroke-linejoin:miter;stroke-miterlimit:4;stroke-dasharray:none;stroke-opacity:1"
       d="M 302.76639,436.50078 0,600 141.32374,465.05993 l 7.08915,-79.65436"
       id="path1960" />
    <path
       style="fill:none;stroke:#ffffff;stroke-width:4;stroke-linecap:butt;stroke-linejoin:miter;stroke-miterlimit:4;stroke-dasharray:none;stroke-opacity:1"
       d="M -0.80227945,531.55253 141.32374,465.05993 302.76639,436.50078 295.37599,538.96226 0,600"
       id="path1962" />
    <path
       style="fill:none;stroke:#ffffff;stroke-width:4;stroke-linecap:butt;stroke-linejoin:miter;stroke-miterlimit:4;stroke-dasharray:none;stroke-opacity:1"
       d="M 466.4509,601.07299 295.37599,538.96226 505.13388,505.06206"
       id="path1964" />
  </g>
  <g
     inkscape:groupmode="layer"
     id="layer3"
     inkscape:label="Wolf Trace">
    <a
       id="a138013"
       style="fill:none;stroke:#000000;stroke-opacity:1"
       transform="translate(22.812156,-26.462156)">
      <path
         style="mix-blend-mode:normal;fill:none;fill-opacity:1;stroke:#000000;stroke-width:4;stroke-linecap:butt;stroke-linejoin:miter;stroke-miterlimit:4;stroke-dasharray:none;stroke-opacity:1"
         d="M -0.80227945,531.55253 148.41289,385.40557 93.352583,372.81987 68.344652,332.09084 85.409388,312.02841 239.10883,236.70134 l 35.80942,-46.83465 78.47854,-29.14117 30.37066,8.47253 124.16207,-119.967643 22.66497,21.483306 21.36402,41.913937 -23.06398,78.70735 31.2761,-11.58017 -3.31852,-13.20687 19.17037,10.79303 21.62898,-1.51376 9.4664,30.6421 -11.51138,34.85746 -55.61916,43.37308 -37.73528,84.10864 23.62081,52.55607 -20.73897,83.69748 L 466.4509,601.07299 0,600 Z"
         id="path138011"
         sodipodi:nodetypes="cccccccccccccccccccccccccc" />
    </a>
  </g>
  <g
     id="layer4"
     inkscape:label="FENRIS (text)">
    <text
       xml:space="preserve"
       style="font-style:normal;font-weight:normal;font-size:480px;line-height:1.25;font-family:sans-serif;letter-spacing:0px;word-spacing:0px;display:none;fill:#000000;fill-opacity:1;stroke:#ffffff;stroke-width:10;stroke-miterlimit:4;stroke-dasharray:none;stroke-opacity:1"
       x="677.61591"
       y="574.41132"
       id="text37392"
       inkscape:label="Fenris Text (Original Text)"><tspan
         sodipodi:role="line"
         id="tspan37390"
         x="0"
         y="0"
         style="font-style:normal;font-variant:normal;font-weight:normal;font-stretch:normal;font-size:480px;font-family:'Roboto Condensed';-inkscape-font-specification:'Roboto Condensed, ';fill:#2b2b2b;fill-opacity:1;stroke:#ffffff;stroke-width:10;stroke-miterlimit:4;stroke-dasharray:none;stroke-opacity:1">FENRIS</tspan></text>
    <g
       aria-label="FENRIS"
       id="text7729"
       style="font-size:480px;line-height:1.25;letter-spacing:0px;word-spacing:0px;display:inline;stroke:#ffffff;stroke-width:10"
       inkscape:label="Fenris Text (Path)">
      <path
         d="m 714.41278,574.41132 v -341.25 h 177.65625 v 37.03125 H 757.53778 v 116.48437 h 115.07813 v 37.03125 H 757.53778 v 150.70313 z"
         style="font-family:'Roboto Condensed';-inkscape-font-specification:'Roboto Condensed, ';fill:#2b2b2b"
         id="path7731" />
      <path
         d="m 945.27216,574.41132 v -341.25 H 1126.444 v 37.03125 H 988.39716 v 109.6875 h 120.46874 v 36.79687 H 988.39716 v 120.9375 h 140.39064 v 36.79688 z"
         style="font-family:'Roboto Condensed';-inkscape-font-specification:'Roboto Condensed, ';fill:#2b2b2b"
         id="path7733" />
      <path
         d="m 1406.9909,233.16132 v 341.25 h -43.3594 L 1226.9909,311.20819 v 263.20313 h -43.125 v -341.25 h 43.125 l 137.3438,263.90625 V 233.16132 Z"
         style="font-family:'Roboto Condensed';-inkscape-font-specification:'Roboto Condensed, ';fill:#2b2b2b"
         id="path7735" />
      <path
         d="m 1645.3503,574.41132 -60.7031,-138.28125 h -60 v 138.28125 h -43.125 v -341.25 h 95.3906 q 50.8594,0 76.1719,25.78125 25.5468,25.54687 25.5468,76.64062 0,66.09375 -53.4375,90.70313 l 66.3282,145.3125 v 2.8125 z M 1524.6472,270.19257 v 129.14062 h 51.7968 q 29.5313,0 44.2969,-18.51562 14.7656,-18.75 14.7656,-45.23438 0,-29.53125 -13.3593,-47.34375 -13.3594,-18.04687 -45.2344,-18.04687 z"
         style="font-family:'Roboto Condensed';-inkscape-font-specification:'Roboto Condensed, ';fill:#2b2b2b"
         id="path7737" />
      <path
         d="m 1781.0534,233.16132 v 341.25 h -43.125 v -341.25 z"
         style="font-family:'Roboto Condensed';-inkscape-font-specification:'Roboto Condensed, ';fill:#2b2b2b"
         id="path7739" />
      <path
         d="m 2005.3503,488.16132 q 0,-23.90625 -12.6563,-37.96875 -12.6562,-14.0625 -54.1406,-28.82813 -41.4844,-15 -65.8594,-37.96875 -24.375,-22.96875 -24.375,-62.10937 0,-39.84375 26.4844,-66.32813 26.4844,-26.48437 71.25,-26.48437 49.9219,0 76.1719,31.64062 26.25,31.64063 26.25,71.48438 h -43.125 q 0,-28.59375 -14.0625,-47.34375 -14.0625,-18.75 -45.2344,-18.75 -28.3594,0 -41.4844,15.9375 -12.8906,15.70312 -12.8906,39.375 0,21.5625 15.2344,35.85937 15.4687,14.29688 47.8125,26.01563 50.1562,16.40625 71.9531,40.78125 21.7969,24.375 21.7969,64.21875 0,41.71875 -27.1875,66.5625 -26.9531,24.84375 -73.125,24.84375 -26.7188,0 -51.7969,-11.71875 -25.0781,-11.71875 -41.25,-34.6875 -15.9375,-23.20313 -15.9375,-57.1875 h 43.125 q 0,34.92187 19.2188,50.85937 19.4531,15.9375 46.6406,15.9375 28.125,0 42.6562,-14.53125 14.5313,-14.76562 14.5313,-39.60937 z"
         style="font-family:'Roboto Condensed';-inkscape-font-specification:'Roboto Condensed, ';fill:#2b2b2b"
         id="path7741" />
    </g>
  </g>
</svg>
